<?xml version="1.0" encoding="utf-8"?>
<!-- Generator: Adobe Illustrator 24.3.0, SVG Export Plug-In . SVG Version: 6.00 Build 0)  -->
<svg version="1.0" id="Layer_1" xmlns="http://www.w3.org/2000/svg" xmlns:xlink="http://www.w3.org/1999/xlink" x="0px" y="0px"
	 viewBox="0 0 562 422" style="enable-background:new 0 0 562 422;" xml:space="preserve">
<style type="text/css">
	.st0{fill:#FFDD00;}
	.st1{fill:none;}
</style>
<g>
	<g>
		<path class="st0" d="M66.9,161c14.5,0,29,0,43.5,0c15.3,26.4,30.5,52.9,45.8,79.3c-1.8,3.1-3.6,6.2-5.4,9.3
			c-1.9,3.1-4.2,6-7.1,8.1c-2.4,1.7-5.2,3-8.2,3.2c-3.1,0.3-6.1-0.6-8.8-2.2c-3.3-2-5.9-4.9-8-8.1c-1.6-2.5-3-5.1-4.5-7.7
			C98.5,215.7,82.7,188.4,66.9,161z"/>
		<path class="st0" d="M124.8,161c14.5,0,29,0,43.5,0c10.4,18.1,20.9,36.2,31.4,54.2c1.4,2.6,4.3,4.3,7.2,4.3c3,0,5.8-1.7,7.3-4.3
			c-10.4-18.1-20.9-36.2-31.3-54.3c14.5,0,29,0,43.5,0c5.6,9.7,11.2,19.4,16.8,29.1c-10.1,17.5-20.2,34.9-30.3,52.4
			c-1.5,2.5-2.9,5-4.4,7.5c-1.9,3.1-4.3,5.9-7.2,8c-2.5,1.7-5.4,2.9-8.5,2.9c-3.1,0.1-6.1-0.9-8.6-2.6c-3.2-2.1-5.7-5-7.7-8.2
			c-1.5-2.4-2.9-4.9-4.3-7.4C156.3,215.5,140.6,188.3,124.8,161z"/>
	</g>
	<g>
		<path d="M259.9,161c2.9,0,5.7,0,8.6,0c1.6,6.4,3.3,12.7,4.9,19.1c1.4,5.6,2.8,11.2,3.9,16.9c1-5.8,2.5-11.6,3.9-17.4
			c1.5-6.2,3.1-12.4,4.7-18.6c2.9,0,5.8,0,8.7,0c2.4,9,4.7,18,6.9,27.1c0.7,2.8,1.3,5.5,1.8,8.3c0.7-3.9,1.6-7.8,2.6-11.7
			c1.9-7.9,4-15.9,6.1-23.8c2.8,0,5.5,0,8.3,0c-4.2,15.5-8.5,31.1-12.7,46.6c-3,0-6.1,0-9.1,0c-2.2-8.4-4.4-16.9-6.4-25.4
			c-0.7-3.1-1.4-6.2-2-9.4c-0.8,4.7-2,9.3-3.2,14c-1.8,6.9-3.7,13.8-5.5,20.8c-3,0-5.9,0-8.9,0C268.3,192.1,264.1,176.5,259.9,161z"
			/>
		<path d="M388,165.5c2.5-0.6,5.1-1.3,7.6-1.9c0,3.3,0,6.5,0,9.8c1.7,0,3.5,0,5.2,0c0,2.2,0.1,4.4,0.1,6.6c-1.8,0-3.5,0-5.3,0
			c0,6.6,0,13.1,0,19.7c0,0.9,0.8,1.7,1.7,1.7c1.2,0.1,2.4-0.1,3.6-0.2c0,2.2,0,4.3,0,6.5c-2.1,0.6-4.2,0.6-6.3,0.6
			c-1.6,0-3.3-0.5-4.5-1.7c-1.5-1.4-2.1-3.4-2.1-5.4c0-7.1,0-14.2,0-21.3c-1.3,0-2.7,0-4,0c0-2.2,0-4.4,0-6.6c1.3,0,2.7,0,4,0
			C388,170.7,388,168.1,388,165.5z"/>
		<g>
			<path d="M325.1,174.9c2.9-1.7,6.4-2.4,9.7-2.2c3.3,0.1,6.6,1.1,9.2,3.1c2.4,1.7,4.2,4.2,5.3,7c1.4,3.3,1.8,7,1.7,10.6
				c-8.8,0-17.7,0-26.5,0c0.4,3.2,2.5,6,5.4,7.2c3.8,1.6,8.7,1,11.7-1.9c0.8-0.7,1.4-1.7,1.9-2.6c2.1,1.1,4.2,2.1,6.2,3.2
				c-1.6,3.4-4.6,6-8.1,7.5c-3.4,1.5-7.3,1.9-11,1.3c-3.5-0.5-6.9-2.1-9.4-4.6s-4.2-5.8-4.8-9.3c-0.7-4.1-0.2-8.5,1.7-12.2
				C319.9,179,322.3,176.5,325.1,174.9z M327.5,181.6c-1.6,1.3-2.6,3.3-2.9,5.3c6.1,0,12.1,0,18.2,0c-0.2-2.4-1.5-4.6-3.6-5.9
				C335.8,178.7,330.7,178.9,327.5,181.6z"/>
		</g>
		<path d="M364.2,172.9c3.9-0.6,8.2-0.1,11.5,2.2c2.8,1.9,4.6,5.1,4.6,8.5c-2.4,0.4-4.7,0.9-7.1,1.3c-0.2-1.2-0.3-2.4-0.9-3.4
			c-0.9-1.5-2.7-2.3-4.4-2.5c-1.6-0.1-3.2,0.1-4.6,0.9c-0.9,0.6-1.5,1.6-1.4,2.7c0.1,1,0.9,1.8,1.8,2.3c1.5,0.8,3.1,1.2,4.8,1.6
			c3,0.8,6.1,1.5,8.8,3.1c1.8,1.1,3.3,2.7,4,4.7c1.1,3.4,0.5,7.4-2,10s-6.2,3.6-9.7,3.8c-4.4,0.3-9-0.7-12.6-3.5
			c-2.3-1.7-3.8-4.5-3.8-7.4c2.4-0.5,4.9-0.9,7.3-1.4c0.1,1.3,0.5,2.6,1.4,3.5c1.5,1.6,3.8,2.1,5.9,2.1c1.6,0,3.4-0.2,4.7-1.3
			c1.1-0.9,1.5-2.6,0.7-3.8c-0.7-1-2-1.5-3.1-2c-3.2-1.1-6.5-1.6-9.6-3c-2-0.8-3.8-2-5-3.8c-2.1-3.2-1.8-7.8,0.7-10.8
			C358.3,174.7,361.2,173.4,364.2,172.9z"/>
		<g>
			<path d="M411.4,175c2.9-1.7,6.4-2.5,9.8-2.3c3.2,0.1,6.5,1.1,9.2,3c2.5,1.8,4.4,4.3,5.6,7.2c1.4,3.3,1.8,6.9,1.6,10.5
				c-8.8,0-17.7,0-26.5,0c0.4,3.1,2.4,5.9,5.2,7.1c3.6,1.6,8,1.2,11.2-1.1c1.2-0.9,2.1-2,2.7-3.3c2.1,1,4.2,2.1,6.3,3.2
				c-1.5,3.3-4.4,5.8-7.6,7.3c-6.2,2.9-14,2.3-19.5-1.9c-3-2.3-5-5.7-5.9-9.4c-1-4.3-0.6-9,1.3-13
				C406.3,179.2,408.6,176.7,411.4,175z M416.9,180c-3,1-5.3,3.8-5.7,6.9c6.1,0,12.1,0,18.2,0c-0.2-1.6-0.8-3.1-1.8-4.3
				C425,179.5,420.5,178.7,416.9,180z"/>
		</g>
		<path d="M477.6,173c3.9-0.9,8.1-0.5,11.5,1.7c2.4,1.5,4.2,4,5.1,6.7c0.7,2,0.9,4.2,0.9,6.3c0,6.6,0,13.3,0,19.9
			c-2.7,0-5.4,0-8.1,0c0-6.2,0-12.5,0-18.7c0-2-0.2-4.1-1.3-5.8c-0.8-1.4-2.1-2.4-3.7-2.9c-3.2-0.9-7.2-0.3-9.2,2.5
			c-1.4,1.8-1.9,4.2-1.9,6.4c0,6.2,0,12.3,0,18.5c-2.7,0-5.4,0-8.1,0c0-11.4,0-22.9,0-34.3c2.3,0,4.7,0,7,0c0,1.6,0,3.2,0,4.9
			C471.5,175.5,474.5,173.7,477.6,173z"/>
		<path d="M441.1,173.3c2.2,0,4.5,0,6.7,0c0,1.4,0,2.9,0,4.3c0.9-1.4,2.2-2.6,3.7-3.3c2.5-1.2,5.3-1.4,8-1c0,2.4,0,4.8-0.1,7.2
			c-2.2-0.3-4.6-0.4-6.8,0.5c-1.4,0.6-2.6,1.8-3.1,3.2c-0.7,1.7-0.4,3.6-0.5,5.3c0,6,0,12.1,0.1,18.1c-2.7,0-5.4,0-8.1,0
			C441.1,196.2,441.1,184.8,441.1,173.3z"/>
		<path d="M345.6,213.7c1.3-0.4,2.9-0.3,4,0.5c1.4,0.9,2.3,2.5,2.2,4.1c-0.1,2.1-1.7,3.9-3.8,4.3c-1.7,0.3-3.6-0.4-4.6-1.7
			c-0.9-1.2-1.2-2.8-0.7-4.2C343.1,215.3,344.2,214.1,345.6,213.7z"/>
		<path d="M263.5,241.8c0-9.4,0-18.7,0-28.1c2.7,0,5.5,0,8.2,0c0,9.3,0,18.6,0,27.8c0.1,3.3,0.9,6.9,3.4,9.3
			c2.2,2.1,5.5,2.7,8.5,2.4c2.5-0.2,5-1.3,6.6-3.3c2-2.4,2.6-5.6,2.6-8.6c0-9.2,0-18.4,0-27.6c2.7,0,5.4,0,8.1,0
			c0,7.9,0,15.8,0,23.7c0,2.6,0.1,5.2-0.3,7.8c-0.6,3.9-2.1,7.8-4.9,10.6c-2.5,2.6-5.8,4.1-9.3,4.7c-4.2,0.7-8.7,0.4-12.6-1.3
			c-2.9-1.3-5.5-3.4-7.1-6.2C264.5,249.8,263.7,245.8,263.5,241.8z"/>
		<path d="M320.6,225.8c3.8-0.8,8.1-0.4,11.4,1.7c2.4,1.5,4.1,3.9,5,6.5c0.7,2.1,1,4.4,1,6.6c0,6.6,0,13.2,0,19.8
			c-2.7,0-5.4,0-8.1,0c0-6,0-12,0-18c0-2-0.1-4.2-1-6.1c-0.6-1.4-1.8-2.5-3.2-3.1c-1.6-0.7-3.5-0.8-5.2-0.5
			c-1.8,0.3-3.5,1.2-4.7,2.7c-1.4,1.8-1.9,4.2-1.9,6.4c0,6.2,0,12.4,0,18.6c-2.7,0-5.4,0-8.1,0c0-11.4,0-22.9,0-34.3
			c2.3,0,4.7,0,7,0c0,1.6,0,3.2,0,4.9C314.5,228.2,317.5,226.4,320.6,225.8z"/>
		<g>
			<path d="M370.9,225.5c4.2-0.4,8.5,0.4,12.1,2.7c3,1.8,5.3,4.6,6.6,7.8c2.6,6.2,1.7,13.9-2.7,19c-2.6,3-6.2,5-10.1,5.7
				c-4.3,0.8-9,0.3-12.9-1.8c-3.1-1.6-5.6-4.2-7.1-7.2c-3.1-6.3-2.5-14.4,2-19.8C361.8,228.1,366.3,225.9,370.9,225.5z M371.6,232.9
				c-2.6,0.3-5,1.7-6.6,3.7c-3,3.8-2.9,9.6,0.1,13.4c1.9,2.4,5.1,3.8,8.2,3.6c3.1,0,6.2-1.6,8.1-4.2c2.8-3.9,2.6-9.8-0.7-13.3
				C378.4,233.6,374.9,232.4,371.6,232.9z"/>
		</g>
		<path d="M409.7,225.8c3.8-0.8,8-0.5,11.3,1.6c2.4,1.4,4.1,3.7,5.1,6.3c0.8,2.1,1.1,4.4,1.1,6.7c0,6.7,0,13.4,0,20
			c-2.7,0-5.4,0-8.1,0c0-6.3,0-12.7,0-19c0-2.1-0.3-4.2-1.5-6c-0.9-1.4-2.4-2.3-4-2.6c-1.7-0.4-3.5-0.3-5.1,0.2s-3,1.5-3.9,2.9
			c-1.2,1.7-1.6,3.9-1.6,5.9c0,6.2,0,12.4,0,18.6c-2.7,0-5.4,0-8.1,0c0-11.4,0-22.9,0-34.3c2.3,0,4.7,0,7,0c0,1.6,0,3.2,0,4.9
			C403.6,228.2,406.6,226.5,409.7,225.8z"/>
		<path d="M343.1,226.1c2.7,0,5.4,0,8.1,0c0,11.4,0,22.9,0,34.3c-2.7,0-5.4,0-8.1,0C343.1,248.9,343.1,237.5,343.1,226.1z"/>
	</g>
</g>
<rect x="49.1" y="146.2" class="st1" width="463.8" height="129.5"/>
</svg>
